<svg width="19" height="26" viewBox="0 0 19 26" fill="none" xmlns="http://www.w3.org/2000/svg"><path fill-rule="evenodd" clip-rule="evenodd" d="M14.4 14.507v-4.37a.513.513 0 00-.512-.513h-1.19V5.506C12.698 2.47 10.232 0 7.2 0 4.17 0 1.702 2.47 1.702 5.506v4.09h1.026v-4.09A4.48 4.48 0 017.2 1.027a4.48 4.48 0 014.473 4.479v4.118H.513a.513.513 0 00-.513.514v8.455c0 1.004.812 1.817 1.81 1.817h6.302c.26 2.773 2.595 4.951 5.43 4.951A5.437 5.437 0 0019 19.896a5.46 5.46 0 00-1.377-3.629 5.458 5.458 0 00-3.222-1.76zm-13.374 4.09v-7.946h12.35v3.789a5.463 5.463 0 00-5.264 4.943H1.81a.785.785 0 01-.784-.785zm16.928 1.735a4.414 4.414 0 01-4.41 4.002 4.44 4.44 0 01-4.432-4.438 4.44 4.44 0 014.431-4.438 4.435 4.435 0 014.41 4.874z" fill="#6B6B6B"/><rect x="8" y="14.35" width="11" height="11" rx="5.5" fill="#7ED321"/><path fill-rule="evenodd" clip-rule="evenodd" d="M16.269 18.114c.2.2.2.526 0 .726l-3.32 3.325a.511.511 0 01-.725 0l-1.406-1.408a.514.514 0 01.726-.727l1.043 1.045 2.957-2.962c.2-.2.524-.2.725 0z" fill="#fff"/></svg>