<svg width="49" height="15" viewBox="0 0 49 15" fill="none" xmlns="http://www.w3.org/2000/svg"><path fill-rule="evenodd" clip-rule="evenodd" d="M19.714.284l-2.477 14.501h3.96l2.479-14.5h-3.962zM35.565.641c-.785-.294-2.014-.609-3.55-.609C28.1.032 25.343 2 25.319 4.817c-.022 2.084 1.97 3.246 3.472 3.94 1.541.71 2.06 1.164 2.053 1.799-.01.972-1.232 1.416-2.37 1.416-1.586 0-2.428-.22-3.73-.761l-.51-.23-.556 3.245c.926.405 2.636.756 4.413.774 4.164 0 6.867-1.944 6.898-4.954.015-1.65-1.04-2.905-3.326-3.94-1.384-.67-2.232-1.119-2.223-1.798 0-.603.717-1.247 2.268-1.247a7.321 7.321 0 012.965.556l.355.167.537-3.143zM40.839 9.644c.327-.835 1.578-4.053 1.578-4.053-.024.038.325-.84.525-1.384l.268 1.25.917 4.187h-3.288zM45.724.298h-3.062c-.948 0-1.658.258-2.074 1.202l-5.883 13.29h4.16s.68-1.787.833-2.18l5.074.007c.119.507.482 2.173.482 2.173h3.676L45.724.298zM13.915.295l-3.878 9.888-.414-2.01c-.722-2.316-2.971-4.826-5.486-6.082l3.546 12.681 4.191-.004L18.111.295h-4.196z" fill="#00579F"/><path fill-rule="evenodd" clip-rule="evenodd" d="M6.438.286H.051L0 .587c4.97 1.2 8.258 4.101 9.623 7.586L8.234 1.51C7.994.592 7.3.318 6.438.286z" fill="#F9A51A"/></svg>