<svg width="21" height="16" viewBox="0 0 21 16" fill="none" xmlns="http://www.w3.org/2000/svg"><path fill-rule="evenodd" clip-rule="evenodd" d="M5.814 10.584h12.77c.05 0 .1 0 .149-.05h.05c.05 0 .05-.05.05-.05s0-.05.049-.05l.05-.049v-.05-.05l1.49-7.254v-.05-.05-.049-.05s0-.05-.05-.05c0 0 0-.05-.049-.05l-.05-.049-.05-.05s-.05 0-.05-.05h-.099H4.572L4.075.299v-.05c0-.05 0-.05-.05-.05 0 0 0-.049-.05-.049L3.925.1l-.05-.05S3.827.05 3.827 0h-.1H.398A.392.392 0 000 .398c0 .248.15.397.398.397h2.98l1.939 9.143a1.925 1.925 0 00-1.49 1.888 1.94 1.94 0 001.937 1.938h.944c-.149.199-.199.447-.199.745C6.51 15.354 7.155 16 8 16c.845 0 1.49-.646 1.49-1.49 0-.25-.099-.547-.198-.746h5.714c-.149.199-.199.447-.199.745 0 .845.646 1.491 1.491 1.491.845 0 1.49-.646 1.49-1.49 0-.25-.099-.547-.198-.746h.944c.199 0 .398-.15.398-.397 0-.249-.15-.398-.398-.398H5.814a1.21 1.21 0 01-1.193-1.193 1.21 1.21 0 011.193-1.192zm8.993-7.255h4.82l-1.341 6.51H6.112L4.72 3.329h10.087zM8.795 14.46a.764.764 0 01-.745.746.764.764 0 01-.746-.745c0-.398.348-.746.746-.746.397 0 .745.348.745.746zm8.298 0a.764.764 0 01-.745.746.764.764 0 01-.745-.745c0-.398.347-.746.745-.746.397 0 .745.348.745.746z" fill="url(#paint0_radial)"/><defs><radialGradient id="paint0_radial" cx="0" cy="0" r="1" gradientUnits="userSpaceOnUse" gradientTransform="matrix(-11.76566 -8.66014 4.4795 -6.08584 16.336 12.248)"><stop stop-color="#7E00E8"/><stop offset=".402" stop-color="#FF1876"/><stop offset="1" stop-color="#BB0CB2"/></radialGradient></defs></svg>